<svg width="46" height="47" viewBox="0 0 46 47" fill="none" xmlns="http://www.w3.org/2000/svg">
<g clip-path="url(#clip0_134_90)">
<path d="M44.0833 36.8644V19.6144C44.0833 16.4442 41.5035 13.8644 38.3333 13.8644H36.4166V6.19769C36.4166 3.02753 33.8368 0.447693 30.6666 0.447693H15.3333C12.1631 0.447693 9.58329 3.02753 9.58329 6.19769V13.8644H7.66663C4.49646 13.8644 1.91663 16.4442 1.91663 19.6144V36.8644H21.0833V42.6144H11.5V46.4477H34.5V42.6144H24.9166V36.8644H44.0833ZM5.74996 27.6337V19.6144C5.74996 18.5564 6.61054 17.6977 7.66663 17.6977H9.58329V23.4477H36.4166V17.6977H38.3333C39.3894 17.6977 40.25 18.5564 40.25 19.6144V27.6337C39.6481 27.419 39.008 27.281 38.3333 27.281H7.66663C6.99196 27.281 6.35179 27.419 5.74996 27.6337Z" fill="#1195FF"/>
</g>
<defs>
<clipPath id="clip0_134_90">
<rect width="46" height="46" fill="white" transform="translate(0 0.447693)"/>
</clipPath>
</defs>
</svg>
