<svg width="46" height="47" viewBox="0 0 46 47" fill="none" xmlns="http://www.w3.org/2000/svg">
<g clip-path="url(#clip0_134_94)">
<path d="M23 0.249023C10.3174 0.249023 0 10.5664 0 23.249C0 35.9316 10.3174 46.249 23 46.249C35.6826 46.249 46 35.9316 46 23.249C46 10.5664 35.6826 0.249023 23 0.249023ZM30.6667 25.1657H23C21.942 25.1657 21.0833 24.3089 21.0833 23.249V11.749C21.0833 10.6891 21.942 9.83236 23 9.83236C24.058 9.83236 24.9167 10.6891 24.9167 11.749V21.3324H30.6667C31.7266 21.3324 32.5833 22.1891 32.5833 23.249C32.5833 24.3089 31.7266 25.1657 30.6667 25.1657Z" fill="#1195FF"/>
</g>
<defs>
<clipPath id="clip0_134_94">
<rect width="46" height="46" fill="white" transform="translate(0 0.249023)"/>
</clipPath>
</defs>
</svg>
