<svg width="48" height="48" viewBox="0 0 48 48" fill="none" xmlns="http://www.w3.org/2000/svg">
<g clip-path="url(#clip0_134_92)">
<path d="M28 13.9574V1.14986C29.8501 1.83397 31.5306 2.89534 32.93 4.26361L39.898 11.0904C41.297 12.459 42.3818 14.104 43.08 15.9157H30C29.4696 15.9157 28.9609 15.7094 28.5858 15.3421C28.2107 14.9748 28 14.4767 28 13.9574ZM44 20.7821V37.4574C43.9968 40.0533 42.9422 42.5421 41.0676 44.3777C39.1929 46.2133 36.6512 47.2459 34 47.249H14C11.3488 47.2459 8.80712 46.2133 6.93244 44.3777C5.05776 42.5421 4.00318 40.0533 4 37.4574V10.0407C4.00318 7.44473 5.05776 4.95599 6.93244 3.12037C8.80712 1.28475 11.3488 0.252133 14 0.249023L23.03 0.249023C23.356 0.249023 23.678 0.274482 24 0.296023V13.9574C24 15.5155 24.6321 17.0098 25.7574 18.1116C26.8826 19.2134 28.4087 19.8324 30 19.8324H43.952C43.974 20.1476 44 20.4629 44 20.7821ZM28 37.4574C28 36.938 27.7893 36.4399 27.4142 36.0726C27.0391 35.7053 26.5304 35.499 26 35.499H16C15.4696 35.499 14.9609 35.7053 14.5858 36.0726C14.2107 36.4399 14 36.938 14 37.4574C14 37.9767 14.2107 38.4748 14.5858 38.8421C14.9609 39.2094 15.4696 39.4157 16 39.4157H26C26.5304 39.4157 27.0391 39.2094 27.4142 38.8421C27.7893 38.4748 28 37.9767 28 37.4574ZM34 29.624C34 29.1046 33.7893 28.6065 33.4142 28.2393C33.0391 27.872 32.5304 27.6657 32 27.6657H16C15.4696 27.6657 14.9609 27.872 14.5858 28.2393C14.2107 28.6065 14 29.1046 14 29.624C14 30.1434 14.2107 30.6415 14.5858 31.0088C14.9609 31.376 15.4696 31.5824 16 31.5824H32C32.5304 31.5824 33.0391 31.376 33.4142 31.0088C33.7893 30.6415 34 30.1434 34 29.624Z" fill="#1195FF"/>
</g>
<defs>
<clipPath id="clip0_134_92">
<rect width="48" height="47" fill="white" transform="translate(0 0.249023)"/>
</clipPath>
</defs>
</svg>
