<svg width="50" height="42" viewBox="0 0 50 42" fill="none" xmlns="http://www.w3.org/2000/svg">
<path d="M36 0.62854C33.7479 0.66284 31.545 1.27842 29.6136 2.41311C27.6822 3.54781 26.0908 5.16143 25 7.09104C23.9093 5.16143 22.3179 3.54781 20.3865 2.41311C18.4551 1.27842 16.2521 0.66284 14 0.62854C10.4099 0.781272 7.02745 2.31908 4.5916 4.90599C2.15576 7.49291 0.864538 10.9187 1.00004 14.4348C1.00004 23.3393 10.572 33.0644 18.6 39.6581C20.3925 41.133 22.6587 41.9416 25 41.9416C27.3413 41.9416 29.6076 41.133 31.4 39.6581C39.428 33.0644 49 23.3393 49 14.4348C49.1355 10.9187 47.8443 7.49291 45.4085 4.90599C42.9726 2.31908 39.5902 0.781272 36 0.62854Z" fill="#1195FF"/>
</svg>
