<svg width="84" height="60" viewBox="0 0 84 60" fill="none" xmlns="http://www.w3.org/2000/svg">
<g clip-path="url(#clip0_134_118)">
<g clip-path="url(#clip1_134_118)">
<g clip-path="url(#clip2_134_118)">
<g clip-path="url(#clip3_134_118)">
<g clip-path="url(#clip4_134_118)">
<g clip-path="url(#clip5_134_118)">
<g clip-path="url(#clip6_134_118)">
<g clip-path="url(#clip7_134_118)">
<path d="M41.949 43.9071C49.6803 43.9071 55.9476 37.6807 55.9476 30C55.9476 22.3193 49.6803 16.0928 41.949 16.0928C34.2178 16.0928 27.9504 22.3193 27.9504 30C27.9504 37.6807 34.2178 43.9071 41.949 43.9071Z" fill="#1195FF"/>
</g>
<path d="M13.9069 19.6976L14.0359 19.296L17.5362 20.4054L17.3684 20.9277L14.5572 21.6393L13.7814 21.7992L13.7799 21.8035L14.3167 21.9505L16.7883 22.734L16.6594 23.1356L13.1591 22.0262L13.3268 21.5038L16.1255 20.795L16.9202 20.6342L16.9215 20.6302L16.3787 20.481L13.9069 19.6976ZM19.1522 17.1382L17.9899 19.5155L14.6851 17.9206L15.812 15.616L16.1876 15.7973L15.2559 17.7032L16.3219 18.2175L17.0462 16.7362L17.4221 16.9174L16.6975 18.3989L17.8089 18.9354L18.7765 16.9568L19.1522 17.1382ZM20.2778 15.6238L19.9577 16.0678L16.3384 14.82L16.6072 14.447L19.7923 15.6036L17.6378 13.0173L17.9334 12.6073L21.1005 13.8075L18.964 11.1776L19.2203 10.8225L21.5786 13.8197L21.2573 14.2654L18.9424 13.4137L18.1566 13.0856L18.1528 13.0908L18.7182 13.7245L20.2778 15.6238ZM25.0572 8.81439L25.5014 8.64856C25.5801 8.85485 25.614 9.06135 25.6034 9.26806C25.5949 9.47498 25.543 9.67137 25.4475 9.85701C25.3521 10.0426 25.2178 10.2108 25.0445 10.3615C24.7821 10.5899 24.5043 10.73 24.2112 10.782C23.9189 10.833 23.6277 10.7989 23.3375 10.6796C23.0463 10.5595 22.7729 10.3543 22.5169 10.0639C22.2601 9.77251 22.0906 9.47562 22.0089 9.17303C21.9283 8.8715 21.9326 8.58029 22.0219 8.2992C22.1124 8.01726 22.2859 7.76462 22.543 7.54105C22.7216 7.38554 22.9017 7.27133 23.083 7.19864C23.2654 7.1251 23.4489 7.09328 23.6332 7.10318C23.8165 7.11224 23.9987 7.16071 24.1796 7.249L23.9836 7.68981C23.7827 7.58572 23.5882 7.54294 23.4001 7.5617C23.2128 7.58129 23.0272 7.67127 22.8429 7.83162C22.6556 7.99471 22.5288 8.18141 22.463 8.3917C22.3979 8.60305 22.3984 8.82556 22.4637 9.05882C22.5284 9.29124 22.6635 9.52408 22.8692 9.75734C23.072 9.98744 23.2832 10.152 23.5032 10.251C23.724 10.3511 23.9431 10.384 24.1603 10.3499C24.3766 10.3145 24.5796 10.2144 24.7694 10.0492C24.9535 9.88904 25.0734 9.7034 25.1289 9.49247C25.1834 9.28028 25.1597 9.0544 25.0572 8.81439ZM24.6585 5.9609L25.817 5.19453C26.1294 4.98803 26.4331 4.90248 26.7282 4.9383C27.0236 4.97202 27.2633 5.12584 27.4468 5.39977C27.6296 5.67243 27.6767 5.94763 27.5878 6.22493C27.4998 6.50349 27.3002 6.74581 26.989 6.95147L26.9708 6.99509L26.2204 7.49153L27.066 8.75329L26.6947 8.99898L24.6585 5.9609ZM25.989 7.14596L26.7723 6.62802C26.9907 6.48347 27.1235 6.33092 27.1708 6.17014C27.216 6.00894 27.178 5.83827 27.0571 5.65747C26.9352 5.47584 26.7912 5.37511 26.6249 5.35552C26.4565 5.33571 26.2632 5.39808 26.0448 5.54242L25.2615 6.06057L25.989 7.14596ZM26.8605 6.96854L27.0344 6.56207L29.0719 7.42663L28.6326 7.7172L26.8605 6.96854ZM32.0733 5.9982L29.6865 7.16598L28.0633 3.89148L30.3769 2.75931L30.5617 3.13164L28.6483 4.06784L29.172 5.12415L30.6592 4.39635L30.8438 4.76868L29.3565 5.49649L29.9025 6.59768L31.8888 5.62587L32.0733 5.9982ZM33.8971 5.49017L33.3701 5.64525L31.2853 2.45188L31.728 2.32165L33.5266 5.17768L33.425 1.82226L33.912 1.67898L35.6695 4.5586L35.6092 1.17958L36.0309 1.05547L36.0391 4.85992L35.51 5.01564L34.2098 2.93104L33.7924 2.1927L33.786 2.19438L33.8407 3.03956L33.8971 5.49017ZM40.3834 0.504244C40.7051 0.484647 40.9872 0.532901 41.2294 0.649426C41.4702 0.765951 41.6765 0.945901 41.849 1.18928L41.4937 1.49987C41.3416 1.27293 41.1768 1.11595 40.9997 1.02892C40.8209 0.942108 40.6095 0.906286 40.3651 0.921247C40.1692 0.933258 40.0084 0.970765 39.883 1.03398C39.7592 1.09698 39.6701 1.17537 39.6158 1.26914C39.5628 1.3629 39.5399 1.46637 39.5469 1.57973C39.5549 1.70911 39.6028 1.81994 39.6909 1.91245C39.7774 2.00474 39.9445 2.07112 40.1923 2.11136L40.9976 2.23927C41.355 2.29468 41.608 2.39667 41.7569 2.54522C41.9054 2.69209 41.9871 2.88194 42.0015 3.11457C42.0142 3.32086 41.9671 3.50755 41.86 3.67465C41.7529 3.84175 41.5968 3.97597 41.3915 4.07754C41.1864 4.17763 40.941 4.23663 40.6557 4.2539C40.3895 4.27034 40.1532 4.24906 39.9469 4.19027C39.7405 4.13127 39.5613 4.0453 39.4088 3.93214C39.2565 3.82025 39.1294 3.69172 39.0278 3.54612L39.3967 3.20623C39.4758 3.34299 39.5742 3.46099 39.6919 3.56023C39.8096 3.65948 39.9494 3.73407 40.111 3.78401C40.2712 3.83248 40.4529 3.8506 40.6563 3.83817C40.8466 3.82658 41.0097 3.79392 41.1459 3.74039C41.2806 3.6854 41.3824 3.61059 41.4515 3.51577C41.5204 3.42116 41.551 3.3099 41.5431 3.182C41.5357 3.06421 41.4903 2.96054 41.407 2.87078C41.3221 2.78122 41.1713 2.71885 40.9548 2.68408L40.0805 2.54501C39.8519 2.50645 39.6654 2.4464 39.5208 2.36485C39.3761 2.2833 39.2694 2.18322 39.2003 2.065C39.1311 1.94511 39.0921 1.81341 39.0832 1.66949C39.0711 1.47479 39.1148 1.29189 39.2145 1.12079C39.314 0.951379 39.4631 0.810201 39.6618 0.697258C39.8618 0.58579 40.1023 0.521522 40.3834 0.504244ZM45.4801 4.32681L42.8246 4.16562L43.0486 0.522576L45.6229 0.678715L45.5974 1.09298L43.4686 0.963811L43.3965 2.13897L45.0511 2.23927L45.0256 2.65353L43.371 2.55323L43.2955 3.77853L45.5056 3.91255L45.4801 4.32681ZM46.8747 0.909447L48.2408 1.17432C48.609 1.24554 48.8854 1.39704 49.0699 1.62862C49.2562 1.85914 49.3177 2.1358 49.2542 2.45883C49.191 2.78059 49.0296 3.00879 48.7702 3.14407C48.5104 3.28062 48.1969 3.31349 47.8302 3.24227L47.7863 3.26039L46.9014 3.08908L46.6094 4.57693L46.1712 4.49201L46.8747 0.909447ZM46.9814 2.68155L47.9051 2.86066C48.1626 2.9106 48.3651 2.89501 48.5125 2.81367C48.6587 2.73065 48.7526 2.58273 48.7944 2.36991C48.8366 2.1554 48.8054 1.98325 48.7011 1.85324C48.5955 1.72154 48.4139 1.63072 48.1564 1.58078L47.2327 1.40168L46.9814 2.68155ZM47.7267 3.1643L48.1382 2.99699L48.9745 5.03523L48.4565 4.93493L47.7267 3.1643ZM53.0245 2.60675L53.4774 2.7631L50.957 5.75714L50.4772 5.59152L50.3642 1.68846L50.8168 1.8446L50.8662 4.53247L50.8475 5.29146L51.3072 4.68945L53.0245 2.60675ZM54.3317 3.13649L54.7406 3.31454L53.2651 6.65731L52.8563 6.47926L54.3317 3.13649ZM56.9208 7.45149L57.2224 7.8154C57.0513 7.95615 56.8655 8.05498 56.6652 8.11187C56.4654 8.17087 56.2616 8.18541 56.054 8.1557C55.8461 8.12599 55.6425 8.05414 55.4431 7.94035C55.1407 7.76735 54.9173 7.55158 54.7729 7.29283C54.6299 7.03449 54.5682 6.74982 54.5877 6.43859C54.6081 6.12589 54.7152 5.80223 54.9088 5.46783C55.1031 5.13195 55.3313 4.87678 55.5931 4.70209C55.8542 4.52889 56.1329 4.4387 56.4294 4.43175C56.7272 4.42543 57.0241 4.50697 57.3202 4.67618C57.5261 4.79375 57.6929 4.92608 57.821 5.07316C57.9501 5.22087 58.0396 5.38291 58.0897 5.55949C58.1406 5.73459 58.1531 5.9215 58.1277 6.12041L57.6445 6.07869C57.6786 5.85618 57.6564 5.65958 57.5779 5.48869C57.4986 5.31885 57.3526 5.17346 57.1405 5.0523C56.9246 4.92882 56.7057 4.87003 56.4841 4.87614C56.2616 4.88352 56.0499 4.95579 55.8489 5.09276C55.6484 5.22867 55.4705 5.43095 55.3148 5.69983C55.1612 5.9649 55.073 6.21671 55.0497 6.45545C55.0257 6.69545 55.0651 6.91207 55.1682 7.10529C55.2717 7.29725 55.4329 7.4555 55.6514 7.58045C55.8635 7.70182 56.0792 7.75429 56.2981 7.73828C56.5178 7.721 56.7253 7.62554 56.9208 7.45149ZM59.3977 10.6518L57.2801 9.05187L59.5042 6.14654L61.5571 7.6974L61.3043 8.0278L59.6066 6.74518L58.8891 7.68244L60.2088 8.67933L59.956 9.00973L58.6363 8.01284L57.8884 8.98992L59.6508 10.3214L59.3977 10.6518ZM63.3464 9.37616C63.5746 9.60268 63.725 9.84437 63.7977 10.1019C63.8694 10.3581 63.8707 10.631 63.8016 10.9205L63.332 10.8621C63.4022 10.5985 63.4113 10.372 63.3593 10.1826C63.3063 9.99208 63.1932 9.81086 63.02 9.63913C62.881 9.50111 62.7461 9.4065 62.6155 9.35509C62.4859 9.30473 62.3678 9.29061 62.2611 9.31231C62.1554 9.33486 62.0621 9.38648 61.9813 9.46698C61.8893 9.55864 61.8375 9.66779 61.8261 9.79443C61.8138 9.92001 61.8746 10.0884 62.0085 10.2993L62.4458 10.9833C62.6409 11.2859 62.7319 11.5417 62.7186 11.7507C62.7063 11.9587 62.6174 12.1452 62.4515 12.3101C62.3046 12.4564 62.1325 12.5451 61.9357 12.5761C61.7387 12.6073 61.534 12.5801 61.3215 12.4947C61.11 12.4083 60.903 12.2651 60.7009 12.0642C60.5121 11.8771 60.3715 11.6873 60.279 11.4947C60.1865 11.3023 60.1326 11.1118 60.1167 10.9234C60.1002 10.7359 60.1129 10.5562 60.1553 10.3842L60.6559 10.4333C60.6052 10.5827 60.5814 10.734 60.5848 10.8874C60.588 11.0408 60.6245 11.1942 60.6941 11.3476C60.7636 11.4989 60.8703 11.6462 61.0146 11.789C61.1494 11.9229 61.2822 12.0227 61.4129 12.0885C61.5435 12.1521 61.6674 12.1784 61.7845 12.1669C61.9016 12.1555 62.0057 12.1045 62.0969 12.0139C62.1807 11.9302 62.2288 11.8278 62.2411 11.7062C62.2526 11.5838 62.1996 11.4304 62.0823 11.2462L61.6074 10.5037C61.485 10.3079 61.4065 10.1295 61.3724 9.96784C61.338 9.80623 61.3425 9.66041 61.3859 9.53061C61.4305 9.39997 61.5039 9.28344 61.6063 9.18146C61.7452 9.04344 61.912 8.95473 62.1069 8.91533C62.3005 8.87719 62.5058 8.89446 62.7226 8.96737C62.9392 9.04239 63.1472 9.17872 63.3464 9.37616ZM66.5964 13.3528L63.9031 15.171L65.0858 16.8999L64.7403 17.1332L63.3067 15.0374L66.3455 12.9859L66.5964 13.3528ZM68.0682 15.6599L69.4258 18.3239L69.0531 18.5115L68.4752 17.3772L65.5698 18.8385L65.3683 18.4428L68.2735 16.9817L67.6955 15.8474L68.0682 15.6599ZM69.8004 19.304L70.204 20.4132C70.3993 20.9501 70.4032 21.4254 70.2157 21.8397C70.0294 22.2533 69.6587 22.5599 69.1032 22.7595C68.549 22.9586 68.0665 22.9584 67.6558 22.759C67.2465 22.5593 66.944 22.191 66.7487 21.6541L66.3451 20.5446L69.8004 19.304ZM66.8897 20.8207L67.1565 21.554C67.2991 21.9457 67.5284 22.2095 67.8442 22.3452C68.1598 22.4798 68.5263 22.472 68.9439 22.322C69.363 22.1716 69.6506 21.9444 69.8065 21.6406C69.962 21.3355 69.9686 20.9869 69.826 20.5954L69.5592 19.8619L66.8897 20.8207ZM18.256 39.8044L18.385 40.2062L14.8847 41.3154L14.7169 40.7932L16.5938 38.5957L17.1334 38.0188L17.1319 38.0148L16.6087 38.2034L14.1371 38.9868L14.0079 38.5852L17.5082 37.4757L17.676 37.9981L15.8076 40.1862L15.2533 40.7745L15.2546 40.7787L15.7842 40.5878L18.256 39.8044ZM16.649 44.9504L15.4864 42.5729L18.7912 40.978L19.9181 43.2828L19.5424 43.4643L18.6105 41.5583L17.5444 42.0727L18.269 43.5542L17.8931 43.7357L17.1688 42.2541L16.0572 42.7906L17.0248 44.769L16.649 44.9504ZM18.0153 46.8664L17.6953 46.4225L20.0498 43.4198L20.3185 43.7928L18.1909 46.4161L21.3491 45.2222L21.6448 45.6325L19.4816 48.2251L22.6754 47.0622L22.9316 47.4173L19.3159 48.6706L18.9946 48.2249L20.5516 46.3218L21.1171 45.6883L21.1132 45.6831L20.3274 46.0109L18.0153 46.8664ZM24.6837 52.4896L24.9077 52.9053C24.7122 53.0098 24.5104 53.0705 24.3028 53.0874C24.0952 53.1061 23.8926 53.0806 23.6947 53.0111C23.4968 52.9416 23.3114 52.8316 23.1384 52.6809C22.876 52.4525 22.6995 52.1973 22.609 51.9154C22.5197 51.6343 22.5154 51.3431 22.596 51.0415C22.6777 50.739 22.8465 50.4427 23.1025 50.1523C23.3594 49.8609 23.6334 49.655 23.9246 49.5349C24.2148 49.4157 24.506 49.3817 24.7983 49.4327C25.0914 49.4846 25.3665 49.6224 25.6233 49.8459C25.8021 50.0015 25.9396 50.1637 26.0361 50.3327C26.1334 50.5027 26.1894 50.6793 26.2036 50.862C26.2189 51.0436 26.1943 51.2295 26.13 51.4193L25.6647 51.2843C25.7419 51.0729 25.7589 50.8757 25.7156 50.6928C25.6713 50.511 25.5572 50.3399 25.3731 50.1797C25.1856 50.0166 24.9826 49.9163 24.7641 49.8792C24.5446 49.843 24.3225 49.8725 24.0983 49.9677C23.875 50.0619 23.6606 50.2257 23.4548 50.4589C23.2521 50.689 23.1157 50.9187 23.0457 51.1484C22.9748 51.3789 22.9708 51.5991 23.0336 51.8085C23.0972 52.0169 23.2239 52.2036 23.4137 52.3686C23.5978 52.529 23.7986 52.6225 24.0165 52.6495C24.2354 52.6754 24.4578 52.6221 24.6837 52.4896ZM27.1884 51.1446L28.3469 51.9107C28.6591 52.1174 28.8557 52.3629 28.9363 52.6472C29.0191 52.931 28.9686 53.21 28.7851 53.4839C28.6023 53.7566 28.3649 53.9058 28.0731 53.9315C27.7804 53.9582 27.4784 53.8687 27.1674 53.663H27.1197L26.3693 53.1666L25.5239 54.4286L25.1523 54.1829L27.1884 51.1446ZM26.6009 52.8212L27.3842 53.3394C27.6027 53.4837 27.7957 53.5467 27.963 53.528C28.1301 53.5073 28.2742 53.4066 28.3953 53.226C28.517 53.0442 28.555 52.8733 28.509 52.7133C28.4625 52.5515 28.3302 52.3983 28.1117 52.2538L27.3284 51.7356L26.6009 52.8212ZM27.1021 53.5516L27.5467 53.5543L27.5297 55.7552L27.0904 55.4646L27.1021 53.5516ZM30.8438 57.3625L28.457 56.195L30.0802 52.9205L32.394 54.0524L32.2095 54.4248L30.2961 53.4888L29.7724 54.5449L31.2597 55.2725L31.0752 55.6448L29.5879 54.9172L29.042 56.0184L31.0283 56.9904L30.8438 57.3625ZM33.1069 58.0413L32.5798 57.8862L32.5817 54.08L33.0246 54.2103L32.9673 57.5787L34.7216 54.7097L35.2086 54.8529L35.104 58.2189L36.9056 55.3523L37.3272 55.4764L35.2486 58.6715L34.7197 58.5158L34.7718 56.0641L34.8266 55.219L34.8202 55.2171L34.4028 55.9554L33.1069 58.0413ZM40.6712 55.7405C40.993 55.7603 41.267 55.8427 41.4929 55.9879C41.7173 56.1328 41.9001 56.3366 42.0409 56.5991L41.65 56.864C41.527 56.6202 41.383 56.4443 41.218 56.3364C41.0513 56.2285 40.8458 56.167 40.6014 56.152C40.4054 56.14 40.2413 56.1577 40.1091 56.2051C39.9785 56.2525 39.8803 56.3195 39.8147 56.4059C39.7507 56.4923 39.715 56.5924 39.708 56.7058C39.7 56.8351 39.7339 56.951 39.8099 57.0534C39.8843 57.1556 40.0419 57.2418 40.2828 57.3122L41.0661 57.5374C41.414 57.6361 41.6526 57.7682 41.7817 57.9336C41.9111 58.0977 41.9686 58.296 41.9542 58.5284C41.9412 58.7349 41.8715 58.9145 41.7444 59.0672C41.6176 59.2198 41.446 59.334 41.2297 59.4098C41.0137 59.484 40.763 59.5125 40.4778 59.495C40.2114 59.4788 39.9795 59.4288 39.7821 59.3452C39.5846 59.2615 39.4173 59.1543 39.28 59.0234C39.1426 58.8938 39.0325 58.7507 38.9498 58.5938L39.3579 58.3015C39.4194 58.4469 39.5023 58.5758 39.6069 58.6888C39.7114 58.8017 39.841 58.8928 39.9952 58.9621C40.1482 59.0299 40.3263 59.07 40.5297 59.0824C40.72 59.094 40.8858 59.0816 41.0277 59.0451C41.1681 59.007 41.2784 58.9452 41.3586 58.8597C41.4388 58.7741 41.4829 58.6673 41.4908 58.5394C41.4982 58.4218 41.4659 58.3133 41.3942 58.214C41.3211 58.1148 41.1792 58.0345 40.9686 57.9734L40.118 57.7288C39.896 57.6626 39.7182 57.5802 39.585 57.4816C39.4516 57.383 39.3579 57.2707 39.304 57.1449C39.2503 57.0176 39.2279 56.8819 39.2368 56.7382C39.2489 56.5433 39.3148 56.3671 39.4349 56.2097C39.5547 56.0536 39.7201 55.9318 39.9312 55.8439C40.1435 55.7577 40.3902 55.7232 40.6712 55.7405ZM45.6498 59.3133L42.9943 59.4743L42.7704 55.8313L45.3446 55.6749L45.3701 56.0892L43.2412 56.2184L43.3135 57.3935L44.9683 57.2932L44.9938 57.7075L43.339 57.8078L43.4143 59.0331L45.6244 58.8991L45.6498 59.3133ZM46.0006 55.5196L47.3666 55.255C47.735 55.1836 48.0485 55.2206 48.307 55.3665C48.5668 55.5104 48.7285 55.7441 48.7919 56.0669C48.8549 56.3886 48.7919 56.6604 48.6025 56.8825C48.4135 57.1061 48.1354 57.2536 47.7687 57.3246L47.7348 57.3579L46.8501 57.5294L47.1422 59.0173L46.7042 59.1022L46.0006 55.5196ZM46.7701 57.1219L47.6936 56.943C47.9511 56.8931 48.1329 56.8029 48.2387 56.6727C48.3429 56.5412 48.374 56.369 48.332 56.156C48.29 55.9417 48.1961 55.7938 48.0502 55.7122C47.9025 55.6296 47.6998 55.6132 47.4423 55.6631L46.5188 55.842L46.7701 57.1219ZM47.6433 57.2911L47.9613 56.9824L49.5073 58.5588L48.9895 58.6593L47.6433 57.2911ZM51.5265 53.9896L51.9793 53.8335L51.8703 57.7351L51.3905 57.9007L48.8659 54.9079L49.3187 54.7518L51.0348 56.8303L51.4938 57.4371L51.4785 56.6817L51.5265 53.9896ZM52.4985 53.5905L52.9072 53.4125L54.3828 56.7553L53.9739 56.9333L52.4985 53.5905ZM57.2033 53.9169L57.6716 53.8409C57.7081 54.0585 57.7007 54.2678 57.6494 54.4684C57.6002 54.6696 57.5105 54.8519 57.3802 55.0154C57.2498 55.1787 57.085 55.3176 56.8856 55.4316C56.5832 55.6043 56.283 55.6876 55.9852 55.6815C55.6887 55.6745 55.4098 55.5843 55.1487 55.4109C54.887 55.2362 54.6594 54.9817 54.4658 54.6473C54.2713 54.3114 54.1639 53.9873 54.1436 53.6746C54.1239 53.3632 54.1856 53.0785 54.3287 52.8204C54.4732 52.5614 54.6933 52.3475 54.9894 52.1783C55.1952 52.0608 55.3941 51.9839 55.5865 51.948C55.7799 51.9114 55.9662 51.9158 56.1447 51.9615C56.3227 52.006 56.4917 52.0892 56.6519 52.211L56.3727 52.605C56.1963 52.4639 56.0139 52.384 55.8257 52.3657C55.6382 52.3484 55.4384 52.4004 55.2261 52.5218C55.0102 52.6451 54.849 52.8035 54.743 52.997C54.6376 53.1917 54.5939 53.4098 54.6121 53.6514C54.6295 53.8917 54.716 54.1464 54.8717 54.4153C55.0251 54.6804 55.1998 54.8829 55.3958 55.0228C55.5926 55.164 55.8009 55.239 56.0207 55.2478C56.24 55.2554 56.4586 55.1966 56.6773 55.0717C56.8894 54.9505 57.0436 54.7918 57.1397 54.5959C57.2351 54.3984 57.2564 54.1721 57.2033 53.9169ZM61.0824 52.4295L58.9648 54.0295L56.7407 51.1241L58.7937 49.5731L59.0465 49.9035L57.349 51.1859L58.0664 52.1231L59.3858 51.126L59.6389 51.4564L58.3192 52.4535L59.0673 53.4306L60.8296 52.0991L61.0824 52.4295ZM60.0434 48.2175C60.2714 47.991 60.5151 47.8421 60.7742 47.7702C61.0324 47.6992 61.307 47.6986 61.5983 47.7677L61.5389 48.2342C61.2735 48.1638 61.0455 48.1543 60.8548 48.2057C60.6631 48.2582 60.4805 48.3703 60.3072 48.542C60.1683 48.6799 60.0728 48.8137 60.0209 48.9435C59.97 49.072 59.9553 49.1894 59.9772 49.2956C59.9999 49.4005 60.0516 49.4932 60.1322 49.5737C60.2245 49.6654 60.3344 49.717 60.4618 49.7284C60.5882 49.7408 60.7577 49.6807 60.9704 49.548L61.6593 49.1146C61.9643 48.9213 62.222 48.8314 62.4322 48.8448C62.6418 48.8575 62.8293 48.9462 62.9949 49.111C63.1419 49.2574 63.231 49.4283 63.262 49.6241C63.2929 49.8196 63.2651 50.0232 63.179 50.2341C63.0919 50.4442 62.947 50.6494 62.7449 50.85C62.5559 51.0373 62.3646 51.1766 62.1707 51.2681C61.9769 51.3597 61.7851 51.413 61.5953 51.4282C61.4067 51.4446 61.2258 51.4316 61.0527 51.3892L61.103 50.8919C61.2532 50.9425 61.4055 50.9663 61.5601 50.9634C61.7145 50.9604 61.8689 50.9244 62.0233 50.8557C62.1758 50.7868 62.3241 50.6808 62.4683 50.5377C62.6032 50.4041 62.7037 50.2722 62.7703 50.1426C62.8346 50.0128 62.8611 49.89 62.8499 49.7735C62.8384 49.6571 62.7873 49.5537 62.6961 49.4629C62.6123 49.3794 62.5092 49.3316 62.3868 49.3192C62.2636 49.3076 62.109 49.36 61.9234 49.4761L61.1753 49.9467C60.9783 50.068 60.7984 50.1458 60.6355 50.1795C60.4729 50.2134 60.3261 50.2086 60.1956 50.1654C60.0639 50.1209 59.9468 50.0476 59.8444 49.9456C59.7057 49.8076 59.6166 49.6418 59.5774 49.4481C59.5392 49.2555 59.557 49.0518 59.6308 48.8364C59.7065 48.6213 59.844 48.415 60.0431 48.2175H60.0434ZM62.8208 44.9787L65.514 46.7969L66.6967 45.068L67.0422 45.3013L65.6086 47.397L62.5699 45.3455L62.8208 44.9787ZM63.9954 43.172L65.3531 40.5079L65.7257 40.6955L65.1477 41.8295L68.0529 43.2908L67.8512 43.6863L64.946 42.2253L64.3681 43.3593L63.9954 43.172ZM65.5073 40.0347L65.9109 38.9255C66.1062 38.3886 66.4091 38.0205 66.8199 37.8211C67.2293 37.6214 67.7118 37.6211 68.2673 37.8207C68.8215 38.0198 69.1923 38.3264 69.3798 38.7405C69.566 39.1543 69.5613 39.6295 69.366 40.1664L68.9624 41.2756L65.5073 40.0347ZM68.7212 40.7176L68.988 39.9841C69.1306 39.5924 69.1242 39.2441 68.9685 38.939C68.8126 38.6351 68.5259 38.4082 68.108 38.2583C67.6891 38.1077 67.3218 38.0997 67.0064 38.2341C66.6903 38.37 66.4611 38.6338 66.3185 39.0256L66.0517 39.7588L68.7212 40.7176ZM12.8206 30.4402C12.8206 29.6587 13.4583 29.0251 14.245 29.0251C15.0315 29.0251 15.6693 29.6587 15.6693 30.4402C15.6693 31.2218 15.0315 31.8554 14.245 31.8554C13.4583 31.8554 12.8206 31.2218 12.8206 30.4402ZM68.2289 30.4402C68.2289 29.6587 68.8665 29.0251 69.6532 29.0251C70.4399 29.0251 71.0776 29.6587 71.0776 30.4402C71.0776 31.2218 70.4399 31.8554 69.6532 31.8554C68.8665 31.8554 68.2289 31.2218 68.2289 30.4402Z" fill="#232323"/>
</g>
</g>
</g>
</g>
</g>
</g>
</g>
<defs>
<clipPath id="clip0_134_118">
<rect width="84" height="59" fill="white" transform="translate(0 0.5)"/>
</clipPath>
<clipPath id="clip1_134_118">
<rect width="84" height="59" fill="white" transform="translate(-0.0509033 0.5)"/>
</clipPath>
<clipPath id="clip2_134_118">
<rect width="83.8898" height="59" fill="white" transform="translate(0.00415039 0.5)"/>
</clipPath>
<clipPath id="clip3_134_118">
<rect width="83.8898" height="59" fill="white" transform="translate(0.00415039 0.5)"/>
</clipPath>
<clipPath id="clip4_134_118">
<rect width="83.8898" height="59" fill="white" transform="translate(0.00415039 0.5)"/>
</clipPath>
<clipPath id="clip5_134_118">
<rect width="83.8898" height="59" fill="white" transform="translate(0.00415039 0.5)"/>
</clipPath>
<clipPath id="clip6_134_118">
<rect width="83.8898" height="59" fill="white" transform="translate(0.00415039 0.5)"/>
</clipPath>
<clipPath id="clip7_134_118">
<rect width="39.546" height="27.8129" fill="white" transform="translate(22.176 16.0936)"/>
</clipPath>
</defs>
</svg>
